<svg xmlns="http://www.w3.org/2000/svg" xmlns:xlink="http://www.w3.org/1999/xlink" width="200.24" height="50" viewBox="0 0 200.24 50">
  <defs>
    <clipPath id="clip-path">
      <path id="Path_4228" data-name="Path 4228" d="M0-63.386H200.24v-50H0Z" transform="translate(0 113.386)" fill="none"/>
    </clipPath>
  </defs>
  <g id="Group_2280" data-name="Group 2280" transform="translate(-243 -84.922)">
    <g id="Group_2270" data-name="Group 2270" transform="translate(243 84.922)">
      <g id="Group_2273" data-name="Group 2273" transform="translate(0 0)" clip-path="url(#clip-path)">
        <g id="Group_2270-2" data-name="Group 2270" transform="translate(129.281 14.396)">
          <path id="Path_4225" data-name="Path 4225" d="M-14.941-45.137c-5.862,0-11.786-3.27-11.786-10.367,0-5.8,4.5-10.3,15.241-10.3h7.651c-.308-4.69-2.592-7.4-6.664-7.4-3.455,0-5.677,1.975-6.417,5.615H-25.8c.926-7.59,6.356-13.144,15.55-13.144C-1.3-80.741,4.8-75.619,4.8-65.931v20.178H-3.834v-5.986c-1.666,3.888-6.232,6.6-11.107,6.6M-3.9-60.254h-7.59c-4.381,0-6.356,1.6-6.356,4.2S-15.867-51.8-12.35-51.8c4.69,0,7.9-3.394,8.453-8.454" transform="translate(26.727 80.741)" fill="#fff"/>
        </g>
        <g id="Group_2271" data-name="Group 2271" transform="translate(50.619 14.396)">
          <path id="Path_4226" data-name="Path 4226" d="M-14.941-45.137c-5.862,0-11.786-3.27-11.786-10.367,0-5.8,4.5-10.3,15.241-10.3h7.651c-.308-4.69-2.592-7.4-6.664-7.4-3.455,0-5.677,1.975-6.417,5.615H-25.8c.926-7.59,6.356-13.144,15.55-13.144C-1.3-80.741,4.8-75.619,4.8-65.931v20.178H-3.834v-5.986c-1.666,3.888-6.232,6.6-11.107,6.6M-3.9-60.254h-7.59c-4.381,0-6.356,1.6-6.356,4.2S-15.867-51.8-12.35-51.8c4.69,0,7.9-3.394,8.454-8.454" transform="translate(26.727 80.741)" fill="#fff"/>
        </g>
        <g id="Group_2272" data-name="Group 2272" transform="translate(88.152 0)">
          <path id="Path_4227" data-name="Path 4227" d="M-22.46-53.995c5.494,0,8.827-4.506,8.827-10.371,0-5.926-3.334-10.433-8.889-10.433-5.494,0-8.7,4.383-8.7,10.433,0,5.988,3.272,10.371,8.766,10.371m8.7-42.592h8.642V-47.2h-8.642v-5.124A11.916,11.916,0,0,1-24.25-46.587c-9.321,0-15.926-7.284-15.926-17.778,0-10.433,6.481-17.84,15.988-17.84A11.592,11.592,0,0,1-13.756-76.65Z" transform="translate(40.176 96.587)" fill="#fff"/>
        </g>
      </g>
      <g id="Group_2274" data-name="Group 2274" transform="translate(19.974 19.627)">
        <path id="Path_4229" data-name="Path 4229" d="M-10.382,0,10.989,29.756H-2.666L-18.572,7.995Z" transform="translate(18.572)" fill="#fff"/>
      </g>
      <g id="Group_2275" data-name="Group 2275" transform="translate(30.05 0)">
        <path id="Path_4230" data-name="Path 4230" d="M0,0V17.642L18.786,0Z" fill="#fff"/>
      </g>
      <g id="Group_2277" data-name="Group 2277" transform="translate(0 0)" clip-path="url(#clip-path)">
        <g id="Group_2276" data-name="Group 2276" transform="translate(168.572 14.381)">
          <path id="Path_4231" data-name="Path 4231" d="M0-.783H8.642V4.279A11.307,11.307,0,0,1,18.889-1.4c7.223,0,12.778,5.309,12.778,14.692V33.6H23.025V14.527c0-5.432-2.778-8.4-7.16-8.4s-7.223,2.963-7.223,8.4V33.6H0Z" transform="translate(0 1.4)" fill="#fff"/>
        </g>
      </g>
      <g id="Group_2278" data-name="Group 2278" transform="translate(172.801 0)">
        <path id="Path_4233" data-name="Path 4233" d="M-19.956,0l-4.136,5.749L-28.228,0H-35.7l6.3,10.238h10.617L-12.486,0Z" transform="translate(35.697)" fill="#fff"/>
      </g>
      <g id="Group_2279" data-name="Group 2279" transform="translate(0 0)">
        <path id="Path_4234" data-name="Path 4234" d="M-.113,0,6.1,7.03V42.252L-.2,49.383h17.36V0Z" transform="translate(0.202)" fill="#fff"/>
      </g>
    </g>
  </g>
</svg>
